#!OML:ASF H:\Terrain\Walking\May29\JustinRory\Justin.ASF
:FULLY-SPECIFIED
:DEGREES
886
root 9.511117365269461 17.77728263473054 11.588008383233534 -147.76539059880238 1.2113287425149721 -146.57138359281433 
lowerback 2.25857880239521 3.1170840538922153 3.404434347305389 
upperback 0.032724019161676665 4.312500299401197 1.8449514371257485 
thorax -1.0802622155688626 2.168107299401197 -0.12056353293413125 
lowerneck -18.26807365269461 -2.420446407185629 -10.602680838323353 
upperneck 23.134004191616764 -1.1186119161676649 1.2521298203592814 
head 10.570125748502994 -1.5263507784431138 2.012379341317365 
rclavicle 9.80008628742515e-14 7.641856287425134e-16 
rhumerus -23.28153113772455 -8.081564670658683 -79.10630658682635 
rradius 36.59987604790419 
rwrist -17.826388359281438 
rhand -12.98849880239521 -35.324892215568866 
rfingers 7.12502 
rthumb 13.104284431137724 -6.689478982035928 
lclavicle 9.80008628742515e-14 7.641856287425134e-16 
lhumerus -36.26481497005988 11.358908982035928 80.17227604790419 
lradius 32.01092994011976 
lwrist -8.688453053892216 
lhand 1.8438157485029942 38.1321502994012 
lfingers 7.12502 
lthumb 27.354974251497005 66.16437125748503 
rfemur 4.44964730538922 -0.34403802395209615 25.074182634730537 
rtibia 29.382240718562876 
rfoot -8.84498263473054 0.8206838323353285 
rtoes -3.8747590419161675 
lfemur -24.69299281437125 2.025457305389222 -14.064494610778443 
ltibia 27.71303113772455 
lfoot -3.0367602395209587 3.688735928143714 
ltoes -4.556458083832336 
887
root 9.507850978043912 17.778189021956088 11.64106506986028 -148.12444750499 1.2825902395209603 -146.91321836327342 
lowerback 2.254698323353294 3.1223422754491015 3.4137468862275453 
upperback 0.03222956682634731 4.319840419161677 1.8439806786427146 
thorax -1.0780881017964075 2.1717804191616765 -0.12687794610778402 
lowerneck -18.27687644710579 -2.415491636726547 -10.598946506986028 
upperneck 23.13493253493014 -1.1112356826347307 1.2464797485029941 
head 10.571442714570859 -1.5237384231536928 2.010634411177645 
rclavicle 9.820432135728543e-14 7.915632135728536e-16 
rhumerus -23.28330359281437 -8.07623387225549 -79.09318922155688 
rradius 36.62966646706587 
rwrist -17.86945516966068 
rhand -12.98720499001996 -34.60041576846311 
rfingers 7.12502 
rthumb 13.105531536926147 -6.683485908183632 
lclavicle 9.820432135728543e-14 7.915632135728536e-16 
lhumerus -36.28622095808383 11.345145908183632 80.18113313373254 
lradius 31.987975249500998 
lwrist -8.694218942115768 
lhand 1.8392993812375251 38.12795708582834 
lfingers 7.12502 
lthumb 27.35065728542914 66.1608864271457 
rfemur 4.497102894211576 -0.33639623353293446 25.088255688622752 
rtibia 29.377363672654692 
rfoot -8.832135688622756 0.8494040319361265 
rtoes -3.880643992015968 
lfemur -24.726729940119753 2.0171162275449106 -14.062105788423153 
ltibia 27.69800359281437 
lfoot -2.992191335329345 3.6622236327345323 
ltoes -4.541884650698603 
888
root 9.504584590818363 17.779095409181636 11.694121756487027 -148.48350441117762 1.3538517365269485 -147.2550531337325 
lowerback 2.2508178443113773 3.1276004970059876 3.4230594251497006 
upperback 0.031735114491017985 4.327180538922155 1.8430099201596806 
thorax -1.0759139880239523 2.1754535389221554 -0.1331923592814368 
lowerneck -18.285679241516966 -2.4105368662674653 -10.595212175648703 
upperneck 23.135860878243513 -1.1038594491017966 1.2408296766467068 
head 10.572759680638722 -1.5211260678642715 2.008889481037924 
rclavicle 9.840777984031936e-14 8.189407984031922e-16 
rhumerus -23.28507604790419 -8.070903073852296 -79.08007185628743 
rradius 36.659456886227545 
rwrist -17.91252198003992 
rhand -12.98591117764471 -33.87593932135729 
rfingers 7.12502 
rthumb 13.10677864271457 -6.677492834331337 
lclavicle 9.840777984031936e-14 8.189407984031922e-16 
lhumerus -36.30762694610778 11.331382834331338 80.18999021956088 
lradius 31.965020558882234 
lwrist -8.699984830339321 
lhand 1.834783013972056 38.12376387225549 
lfingers 7.12502 
lthumb 27.346340319361275 66.15740159680638 
rfemur 4.544558483033931 -0.3287544431137728 25.102328742514967 
rtibia 29.372486626746507 
rfoot -8.81928874251497 0.8781242315369244 
rtoes -3.8865289421157683 
lfemur -24.76046706586826 2.0087751497005994 -14.059716966067864 
ltibia 27.68297604790419 
lfoot -2.9476224311377273 3.6357113373253505 
ltoes -4.52731121756487 
889
root 9.501318203592813 17.780001796407184 11.747178443113773 -148.84256131736524 1.425113233532933 -147.5968879041916 
lowerback 2.2469373652694613 3.1328587185628747 3.432371964071857 
upperback 0.03124066215568863 4.334520658682635 1.8420391616766467 
thorax -1.0737398742514972 2.1791266586826348 -0.13950677245508958 
lowerneck -18.294482035928144 -2.4055820958083833 -10.591477844311378 
upperneck 23.136789221556885 -1.0964832155688624 1.2351796047904195 
head 10.574076646706587 -1.5185137125748505 2.0071445508982038 
rclavicle 9.861123832335329e-14 8.463183832335324e-16 
rhumerus -23.28684850299401 -8.065572275449103 -79.06695449101797 
rradius 36.68924730538922 
rwrist -17.95558879041916 
rhand -12.984617365269461 -33.151462874251536 
rfingers 7.12502 
rthumb 13.108025748502994 -6.671499760479042 
lclavicle 9.861123832335329e-14 8.463183832335324e-16 
lhumerus -36.32903293413173 11.317619760479042 80.19884730538922 
lradius 31.942065868263473 
lwrist -8.705750718562875 
lhand 1.830266646706587 38.11957065868263 
lfingers 7.12502 
lthumb 27.342023353293413 66.15391676646706 
rfemur 4.592014071856287 -0.3211126526946111 25.11640179640718 
rtibia 29.367609580838323 
rfoot -8.806441796407185 0.9068444311377224 
rtoes -3.892413892215569 
lfemur -24.794204191616764 2.000434071856288 -14.057328143712574 
ltibia 27.66794850299401 
lfoot -2.9030535269461097 3.6091990419161686 
ltoes -4.512737784431138 
890
root 9.498051816367266 17.780908183632736 11.80023512974052 -149.20161822355288 1.4963747305389212 -147.93872267465068 
lowerback 2.243056886227545 3.138116940119761 3.441684502994012 
upperback 0.030746209820359305 4.341860778443113 1.8410684031936126 
thorax -1.071565760479042 2.1827997784431137 -0.14582118562874236 
lowerneck -18.303284830339322 -2.4006273253493013 -10.587743512974052 
upperneck 23.137717564870258 -1.0891069820359283 1.2295295329341318 
head 10.575393612774452 -1.5159013572854292 2.005399620758483 
rclavicle 9.881469680638722e-14 8.73695968063871e-16 
rhumerus -23.288620958083833 -8.060241477045908 -79.0538371257485 
rradius 36.7190377245509 
rwrist -17.998655600798404 
rhand -12.98332355289421 -32.42698642714572 
rfingers 7.12502 
rthumb 13.109272854291417 -6.665506686626747 
lclavicle 9.881469680638722e-14 8.73695968063871e-16 
lhumerus -36.35043892215569 11.303856686626746 80.20770439121756 
lradius 31.91911117764471 
lwrist -8.711516606786427 
lhand 1.825750279441118 38.11537744510978 
lfingers 7.12502 
lthumb 27.33770638722555 66.15043193612775 
rfemur 4.6394696606786425 -0.3134708622754494 25.1304748502994 
rtibia 29.362732534930142 
rfoot -8.793594850299403 0.9355646307385221 
rtoes -3.898298842315369 
lfemur -24.827941317365266 1.9920929940119767 -14.054939321357285 
ltibia 27.652920958083833 
lfoot -2.858484622754492 3.5826867465069867 
ltoes -4.498164351297405 
891
root 9.494785429141716 17.781814570858284 11.853291816367266 -149.5606751297405 1.5676362275449094 -148.28055744510974 
lowerback 2.239176407185629 3.143375161676647 3.4509970419161675 
upperback 0.03025175748502995 4.349200898203593 1.8400976447105788 
thorax -1.0693916467065872 2.1864728982035926 -0.1521355988023947 
lowerneck -18.3120876247505 -2.39567255489022 -10.584009181636727 
upperneck 23.138645908183634 -1.081730748502994 1.2238794610778445 
head 10.576710578842315 -1.5132890019960081 2.0036546906187627 
rclavicle 9.901815528942115e-14 9.010735528942112e-16 
rhumerus -23.290393413173653 -8.054910678642715 -79.04071976047905 
rradius 36.74882814371257 
rwrist -18.041722411177645 
rhand -12.98202974051896 -31.702509980039963 
rfingers 7.12502 
rthumb 13.11051996007984 -6.659513612774451 
lclavicle 9.901815528942115e-14 9.010735528942112e-16 
lhumerus -36.37184491017964 11.290093612774452 80.21656147704591 
lradius 31.896156487025948 
lwrist -8.71728249500998 
lhand 1.821233912175649 38.111184231536924 
lfingers 7.12502 
lthumb 27.333389421157683 66.14694710578841 
rfemur 4.686925249500998 -0.3058290718562877 25.144547904191615 
rtibia 29.357855489021958 
rfoot -8.780747904191617 0.9642848303393201 
rtoes -3.9041837924151697 
lfemur -24.861678443113767 1.983751916167665 -14.052550499001997 
ltibia 27.637893413173654 
lfoot -2.8139157185628747 3.556174451097805 
ltoes -4.483590918163673 
892
root 9.491519041916167 17.782720958083832 11.906348502994012 -149.91973203592812 1.6388977245508975 -148.62239221556882 
lowerback 2.235295928143713 3.148633383233533 3.4603095808383237 
upperback 0.029757305149700625 4.356541017964071 1.839126886227545 
thorax -1.067217532934132 2.1901460179640715 -0.15845001197604747 
lowerneck -18.320890419161678 -2.390717784431138 -10.580274850299402 
upperneck 23.139574251497006 -1.07435451497006 1.2182293892215572 
head 10.57802754491018 -1.5106766467065869 2.001909760479042 
rclavicle 9.922161377245508e-14 9.284511377245498e-16 
rhumerus -23.292165868263474 -8.049579880239522 -79.02760239520958 
rradius 36.77861856287425 
rwrist -18.084789221556886 
rhand -12.980735928143712 -30.97803353293415 
rfingers 7.12502 
rthumb 13.111767065868262 -6.653520538922156 
lclavicle 9.922161377245508e-14 9.284511377245498e-16 
lhumerus -36.39325089820359 11.276330538922156 80.22541856287425 
lradius 31.873201796407187 
lwrist -8.723048383233532 
lhand 1.8167175449101798 38.10699101796407 
lfingers 7.12502 
lthumb 27.32907245508982 66.1434622754491 
rfemur 4.734380838323354 -0.29818728143712603 25.15862095808383 
rtibia 29.352978443113773 
rfoot -8.767900958083832 0.9930050299401181 
rtoes -3.91006874251497 
lfemur -24.89541556886227 1.975410838323354 -14.050161676646708 
ltibia 27.622865868263474 
lfoot -2.7693468143712607 3.529662155688623 
ltoes -4.469017485029941 
